<svg width="273" height="41" viewBox="0 0 273 41" fill="none" xmlns="http://www.w3.org/2000/svg">
<g clip-path="url(#clip0_4413_918)">
<path d="M28.3314 1.6478C26.3494 0.989846 24.2296 0.633728 22.0267 0.633728C18.576 0.633728 15.3293 1.50771 12.4961 3.04623C13.0571 3.22523 13.6008 3.44313 14.1237 3.69697C16.524 2.57496 19.2022 1.94838 22.0267 1.94838C23.7041 1.94838 25.3298 2.16943 26.8765 2.5839C27.3319 2.23186 27.8185 1.91826 28.3314 1.6478Z" fill="#CBCBCB"/>
<path d="M25.8512 3.49285C24.6201 3.21925 23.3401 3.07507 22.0264 3.07507C19.6656 3.07507 17.4136 3.54101 15.3574 4.38581C15.7996 4.66709 16.2229 4.97567 16.6245 5.30936C18.3146 4.71369 20.1327 4.38957 22.0264 4.38957C22.9998 4.38957 23.9533 4.47523 24.8797 4.63932C25.1748 4.23316 25.4998 3.8499 25.8512 3.49285Z" fill="#CBCBCB"/>
<path d="M24.2203 5.67428C23.5041 5.57027 22.7718 5.5163 22.0268 5.5163C20.4763 5.5163 18.9805 5.74974 17.5723 6.1832C17.9106 6.52928 18.2286 6.89528 18.5244 7.27901C19.6428 6.98643 20.8166 6.8308 22.0268 6.8308C22.5712 6.8308 23.1082 6.86233 23.6362 6.92367C23.8027 6.4921 23.9983 6.0748 24.2203 5.67428Z" fill="#CBCBCB"/>
<path d="M23.2848 8.01929C22.8711 7.9785 22.4514 7.95764 22.0271 7.95764C21.0605 7.95764 20.1194 8.06573 19.2148 8.27061C19.4574 8.65811 19.679 9.06019 19.8783 9.47498C20.574 9.34179 21.2924 9.27214 22.0271 9.27214C22.3683 9.27214 22.7062 9.2872 23.0397 9.31669C23.0934 8.87476 23.1757 8.44161 23.2848 8.01929Z" fill="#CBCBCB"/>
<path d="M22.9659 10.4416C22.6565 10.4133 22.3432 10.399 22.0265 10.399C21.4479 10.399 20.8806 10.447 20.3281 10.5393C20.4806 10.9525 20.6114 11.3761 20.7195 11.8086C21.1461 11.746 21.5823 11.7135 22.0263 11.7135C22.3435 11.7135 22.6567 11.73 22.9652 11.7623V10.5398C22.9654 10.507 22.9656 10.4742 22.9659 10.4416Z" fill="#CBCBCB"/>
<path d="M22.9661 12.8963C22.6583 12.8592 22.3448 12.8402 22.0272 12.8402C21.6594 12.8402 21.2975 12.8657 20.9434 12.9149C21.0096 13.3445 21.0537 13.7814 21.0746 14.2242C21.3855 14.1784 21.7037 14.1546 22.0273 14.1546C22.3463 14.1546 22.6597 14.1776 22.9662 14.2222L22.9661 12.8963Z" fill="#CBCBCB"/>
<path d="M22.9658 15.3637C22.6609 15.3097 22.3472 15.2816 22.0268 15.2816C21.7065 15.2816 21.3927 15.3097 21.0879 15.3637V16.7059C21.3893 16.6341 21.7037 16.5961 22.0268 16.5961C22.35 16.5961 22.6646 16.6341 22.9658 16.7059V15.3637Z" fill="#CBCBCB"/>
<path fill-rule="evenodd" clip-rule="evenodd" d="M42.026 20.4929L42.0266 4.85901C43.7379 4.85901 45.1252 3.47172 45.1252 1.76047V1.15021H33.0132C27.8276 1.15021 23.6237 5.35396 23.6237 10.5398V20.1642L23.6229 20.6337C23.6229 21.5154 22.9083 22.23 22.0267 22.23C21.145 22.23 20.4304 21.5154 20.4304 20.6337V14.906C20.4304 8.3979 15.1545 3.12203 8.64637 3.12203H0.571289V4.24874C0.571289 4.7277 0.699303 5.17669 0.923014 5.5634H0.571289V6.69011C0.571289 7.16891 0.699303 7.6179 0.923014 8.00492H0.571289V9.31942H0.577878C0.606744 9.72778 0.728796 10.1104 0.923014 10.4461H0.571289V11.7606H0.577878C0.606744 12.169 0.728796 12.5516 0.923014 12.8873H0.571289V14.014C0.571289 14.4928 0.699303 14.9418 0.923014 15.3287H0.571289V16.4554C0.571289 17.4856 1.16382 18.3773 2.02666 18.8086V20.6337C2.02666 31.6793 10.9807 40.6337 22.0265 40.6337C33.0723 40.6337 42.0265 31.6793 42.0265 20.6337C42.0265 20.5867 42.0263 20.5398 42.026 20.4929ZM40.7121 20.1642V17.629C40.7121 17.0067 40.2076 16.5023 39.5854 16.5023V20.4929C39.5858 20.5398 39.5853 20.5867 39.5853 20.6337C39.5853 30.3311 31.724 38.1924 22.0267 38.1924C12.3293 38.1924 4.46803 30.3311 4.46803 20.6337V19.0845H3.34132V20.6337C3.34132 30.9535 11.7071 39.3191 22.0267 39.3191C32.3462 39.3191 40.712 30.9533 40.712 20.6337C40.712 20.4768 40.7101 20.3203 40.7062 20.1642H40.7121ZM38.2709 20.1642V17.629C38.2709 17.0067 37.7664 16.5023 37.1442 16.5023V20.4929C37.1446 20.5397 37.1439 20.5866 37.1439 20.6336C37.1439 28.9827 30.3757 35.7508 22.0267 35.7508C13.6777 35.7508 6.90924 28.9827 6.90924 20.6337V20.6105C6.90924 20.6025 6.90924 20.5947 6.9094 20.5867L6.90924 16.643H3.20044C2.72164 16.643 2.27265 16.515 1.88594 16.2913V16.4552C1.88594 17.1813 2.47456 17.7697 3.20044 17.7697H5.78253V20.6337C5.78253 29.6051 13.0552 36.8779 22.0267 36.8779C30.9982 36.8779 38.2708 29.6052 38.2708 20.6337C38.2708 20.4767 38.2686 20.3203 38.2641 20.1642H38.2709ZM35.8297 20.164V17.629C35.8297 17.0067 35.3252 16.5023 34.703 16.5023V20.4929H34.7017C34.7022 20.5397 34.7024 20.5866 34.7024 20.6336C34.7024 27.6343 29.0271 33.3096 22.0264 33.3096C15.0256 33.3096 9.35029 27.6343 9.35029 20.6336C9.35029 20.6179 9.35029 20.6022 9.35045 20.5867L9.35029 15.9858C9.35029 15.0005 8.55162 14.2018 7.56625 14.2018H1.89912C1.99027 14.8389 2.53809 15.3285 3.20028 15.3285H6.9563C7.65646 15.3285 8.22389 15.896 8.22389 16.5961V20.5867C8.22389 20.6024 8.22389 20.618 8.22389 20.6336C8.22389 28.2567 14.4036 34.4363 22.0267 34.4363C29.6498 34.4363 35.8294 28.2567 35.8294 20.6336C35.8294 20.4764 35.8268 20.32 35.8216 20.164H35.8297ZM33.3885 20.164V17.629C33.3885 17.0067 32.884 16.5023 32.2618 16.5023V20.4929H32.2606C32.2612 20.5397 32.2615 20.5867 32.2615 20.6337C32.2615 26.2863 27.6792 30.8684 22.0268 30.8684C16.3744 30.8684 11.7921 26.2861 11.7921 20.6337C11.7921 20.618 11.7921 20.6024 11.7923 20.5868L11.7921 15.9858C11.7921 13.6523 9.90047 11.7604 7.56672 11.7604H1.89912C1.99027 12.3975 2.53809 12.8872 3.20028 12.8872H7.56657C9.27781 12.8872 10.6651 14.2744 10.6651 15.9857V20.5867C10.6651 20.5898 10.6652 20.593 10.6652 20.5962C10.6652 20.6041 10.6651 20.612 10.6651 20.6198V20.6336C10.6651 26.9083 15.7518 31.9951 22.0265 31.9951C28.3012 31.9951 33.3879 26.9085 33.3879 20.6336C33.3879 20.4762 33.3848 20.3198 33.3783 20.164H33.3885ZM30.9473 20.1642V17.629C30.9473 17.0067 30.4428 16.5023 29.8206 16.5023V20.4929H29.8189C29.8197 20.5397 29.8201 20.5867 29.8201 20.6337C29.8201 24.9379 26.331 28.4272 22.0267 28.4272C17.7223 28.4272 14.2332 24.938 14.2332 20.6337C14.2332 20.618 14.2332 20.6024 14.2333 20.5868L14.2332 15.6103C14.2332 12.1359 11.4166 9.31926 7.94214 9.31926H1.89912C1.99027 9.95635 2.53809 10.4459 3.20028 10.4459H7.56657C10.6262 10.4459 13.1065 12.9262 13.1065 15.9858V20.5868C13.1064 20.6025 13.1065 20.618 13.1065 20.6337C13.1065 25.5602 17.1002 29.5539 22.0267 29.5539C26.9532 29.5539 30.9469 25.5602 30.9469 20.6337C30.9469 20.4762 30.9428 20.3198 30.9348 20.1642H30.9473ZM28.5061 20.1642V17.629C28.5061 17.0067 28.0016 16.5023 27.3794 16.5023V20.4929H27.3771C27.3783 20.5396 27.3789 20.5865 27.3789 20.6336C27.3789 23.5895 24.9828 25.9857 22.0268 25.9857C19.0709 25.9857 16.6747 23.5895 16.6747 20.6336V20.6063C16.6747 20.602 16.6747 20.5978 16.6749 20.5936V20.5865L16.6747 15.1407C16.6747 10.5773 12.9753 6.87789 8.41184 6.87789H1.89912C1.99027 7.51498 2.53809 8.00461 3.20028 8.00461H7.94214C12.1426 8.00461 15.5478 11.4098 15.5478 15.6103V20.5868C15.5476 20.6025 15.5478 20.618 15.5478 20.6337C15.5478 24.2118 18.4485 27.1126 22.0267 27.1126C25.6048 27.1126 28.5055 24.2118 28.5055 20.6337C28.5055 20.4759 28.4998 20.3193 28.4887 20.1642H28.5061ZM26.0649 20.164V17.629C26.0649 17.0067 25.5603 16.5023 24.9382 16.5023V20.4929L24.9374 20.6337C24.9374 22.2413 23.6342 23.5445 22.0267 23.5445C20.4191 23.5445 19.1159 22.2413 19.1159 20.6337V14.906C19.1159 9.12395 14.4285 4.43653 8.64637 4.43653H1.89912C1.99027 5.07362 2.53809 5.56324 3.20028 5.56324H8.41152C13.701 5.56324 17.989 9.85124 17.989 15.1407V20.5867C17.9888 20.6023 17.989 20.618 17.989 20.6336C17.989 22.8635 19.7968 24.6712 22.0267 24.6712C24.2566 24.6712 26.0643 22.8635 26.0643 20.6336C26.0643 20.4748 26.0552 20.3181 26.0373 20.164H26.0649ZM37.8012 3.70892C37.8012 4.34413 38.3163 4.85916 38.9515 4.85916C39.5867 4.85916 40.1017 4.34413 40.1017 3.70892C40.1017 3.07371 39.5867 2.55868 38.9515 2.55868C38.3163 2.55868 37.8012 3.07371 37.8012 3.70892Z" fill="#CBCBCB"/>
<path d="M67.2246 20.0723C67.2246 20.0903 67.2246 20.1083 67.2246 20.1264C67.2426 20.1264 67.2606 20.1264 67.2787 20.1264H77.8225V28.0748H56.0049C56.0049 26.9573 56.0049 25.8398 56.0049 24.7224C56.0049 23.6049 56.0049 22.4875 56.0049 21.37C56.0049 20.2345 56.0049 19.108 56.0049 17.9906C56.0049 16.8731 56.0049 15.7556 56.0049 14.6382C56.0049 13.5027 56.0049 12.3672 56.0049 11.2317C56.0049 10.0782 56.0049 8.9337 56.0049 7.79822H67.2246C67.2246 8.82556 67.2246 9.85291 67.2246 10.8803C67.2246 11.8896 67.2246 12.9079 67.2246 13.9353C67.2246 14.9626 67.2246 15.99 67.2246 17.0173C67.2246 18.0266 67.2246 19.0449 67.2246 20.0723Z" fill="#CBCBCB"/>
<path d="M90.6055 28.8858C89.488 28.8858 88.4066 28.8047 87.3612 28.6425C86.3158 28.4803 85.3426 28.237 84.4414 27.9126C83.5402 27.5701 82.7201 27.1466 81.9812 26.6419C81.2422 26.1372 80.6114 25.5515 80.0887 24.8846C79.566 24.1997 79.1605 23.4337 78.8721 22.5866C78.5837 21.7215 78.4395 20.7662 78.4395 19.7208C78.4395 18.4952 78.6378 17.3958 79.0343 16.4225C79.4489 15.4312 80.0256 14.5661 80.7646 13.8271C81.5216 13.0882 82.4047 12.4753 83.4141 11.9887C84.4234 11.4841 85.5318 11.1146 86.7394 10.8803C87.965 10.6279 89.2537 10.5018 90.6055 10.5018C92.2997 10.5018 93.8767 10.7 95.3367 11.0965C96.8146 11.475 98.1033 12.0518 99.2027 12.8268C100.32 13.5838 101.194 14.5391 101.825 15.6926C102.456 16.8461 102.771 18.1888 102.771 19.7208C102.771 21.2528 102.456 22.5956 101.825 23.7491C101.194 24.8846 100.32 25.8398 99.2027 26.6149C98.1033 27.3718 96.8146 27.9396 95.3367 28.3181C93.8767 28.6966 92.2997 28.8858 90.6055 28.8858ZM90.6325 21.7215C91.75 21.7215 92.543 21.5052 93.0116 21.0726C93.4802 20.64 93.7145 20.1714 93.7145 19.6668C93.7145 19.4325 93.6605 19.1981 93.5523 18.9638C93.4442 18.7295 93.273 18.5133 93.0386 18.315C92.8043 18.1167 92.4889 17.9635 92.0924 17.8554C91.6959 17.7292 91.2093 17.6661 90.6325 17.6661C90.0557 17.6661 89.5601 17.7292 89.1456 17.8554C88.749 17.9635 88.4246 18.1167 88.1723 18.315C87.938 18.5133 87.7667 18.7295 87.6586 18.9638C87.5505 19.1981 87.4964 19.4415 87.4964 19.6938C87.4964 19.9461 87.5505 20.1985 87.6586 20.4508C87.7667 20.6851 87.947 20.9014 88.1993 21.0996C88.4516 21.2799 88.7761 21.4331 89.1726 21.5592C89.5691 21.6674 90.0557 21.7215 90.6325 21.7215Z" fill="#CBCBCB"/>
<path d="M127.182 11.3128C127.182 13.4937 127.182 15.6835 127.182 17.8824C127.182 20.0813 127.182 22.2802 127.182 24.4791C127.182 25.4523 126.957 26.3355 126.506 27.1285C126.056 27.9035 125.434 28.5884 124.641 29.1832C123.848 29.796 122.929 30.3007 121.883 30.6972C120.838 31.0937 119.711 31.3911 118.504 31.5894C117.296 31.8057 116.071 31.9138 114.827 31.9138C113.241 31.9138 111.673 31.7426 110.123 31.4001C108.573 31.0577 107.185 30.544 105.959 29.8591V25.5605C106.482 25.9029 107.113 26.2183 107.852 26.5067C108.609 26.7771 109.411 26.9934 110.258 27.1556C111.105 27.3178 111.943 27.3989 112.772 27.3989C113.457 27.3989 114.097 27.3358 114.692 27.2096C115.305 27.0654 115.845 26.8492 116.314 26.5608C116.783 26.2724 117.152 25.8939 117.422 25.4253C117.693 24.9567 117.828 24.3799 117.828 23.695V18.6935C117.828 18.3691 117.765 18.0897 117.639 17.8554C117.513 17.6211 117.323 17.4318 117.071 17.2876C116.837 17.1254 116.557 17.0083 116.233 16.9362C115.908 16.8461 115.548 16.801 115.151 16.801C114.611 16.801 114.124 16.8731 113.692 17.0173C113.277 17.1435 112.953 17.3417 112.718 17.6121C112.484 17.8824 112.367 18.2159 112.367 18.6124C112.367 19.0269 112.484 19.3784 112.718 19.6668C112.971 19.9551 113.304 20.1804 113.719 20.3426C114.133 20.4868 114.611 20.5589 115.151 20.5589C116.593 20.5589 117.486 20.0362 117.828 18.9909L116.206 25.3442C115.449 25.7948 114.701 26.0651 113.962 26.1553C113.223 26.2454 112.475 26.2904 111.718 26.2904C110.619 26.2904 109.564 26.1192 108.555 25.7768C107.546 25.4163 106.644 24.9116 105.851 24.2628C105.076 23.5959 104.454 22.7939 103.986 21.8566C103.535 20.9014 103.31 19.82 103.31 18.6124C103.31 17.8013 103.418 17.0533 103.634 16.3684C103.851 15.6835 104.157 15.0527 104.554 14.476C104.95 13.8992 105.419 13.3946 105.959 12.962C106.518 12.5114 107.122 12.1329 107.771 11.8265C108.438 11.5201 109.141 11.2948 109.88 11.1506C110.637 10.9884 111.403 10.9073 112.178 10.9073C112.538 10.9073 112.926 10.9343 113.34 10.9884C113.755 11.0245 114.169 11.0965 114.584 11.2047C115.016 11.2948 115.431 11.43 115.827 11.6102C116.224 11.7724 116.584 11.9797 116.909 12.232C117.251 12.4663 117.54 12.7547 117.774 13.0972C117.792 13.1332 117.801 13.1512 117.801 13.1512C117.819 13.1512 117.828 13.1422 117.828 13.1242C117.828 13.1062 117.828 13.0882 117.828 13.0701C117.828 12.8719 117.828 12.5835 117.828 12.205C117.828 11.8085 117.828 11.5111 117.828 11.3128H127.182Z" fill="#CBCBCB"/>
<path d="M140.135 28.8858C139.018 28.8858 137.936 28.8047 136.891 28.6425C135.846 28.4803 134.872 28.237 133.971 27.9126C133.07 27.5701 132.25 27.1466 131.511 26.6419C130.772 26.1372 130.141 25.5515 129.618 24.8846C129.096 24.1997 128.69 23.4337 128.402 22.5866C128.113 21.7215 127.969 20.7662 127.969 19.7208C127.969 18.4952 128.167 17.3958 128.564 16.4225C128.979 15.4312 129.555 14.5661 130.294 13.8271C131.051 13.0882 131.934 12.4753 132.944 11.9887C133.953 11.4841 135.061 11.1146 136.269 10.8803C137.495 10.6279 138.783 10.5018 140.135 10.5018C141.829 10.5018 143.406 10.7 144.866 11.0965C146.344 11.475 147.633 12.0518 148.732 12.8268C149.85 13.5838 150.724 14.5391 151.355 15.6926C151.986 16.8461 152.301 18.1888 152.301 19.7208C152.301 21.2528 151.986 22.5956 151.355 23.7491C150.724 24.8846 149.85 25.8398 148.732 26.6149C147.633 27.3718 146.344 27.9396 144.866 28.3181C143.406 28.6966 141.829 28.8858 140.135 28.8858ZM140.162 21.7215C141.28 21.7215 142.073 21.5052 142.541 21.0726C143.01 20.64 143.244 20.1714 143.244 19.6668C143.244 19.4325 143.19 19.1981 143.082 18.9638C142.974 18.7295 142.803 18.5133 142.568 18.315C142.334 18.1167 142.019 17.9635 141.622 17.8554C141.226 17.7292 140.739 17.6661 140.162 17.6661C139.585 17.6661 139.09 17.7292 138.675 17.8554C138.279 17.9635 137.954 18.1167 137.702 18.315C137.468 18.5133 137.296 18.7295 137.188 18.9638C137.08 19.1981 137.026 19.4415 137.026 19.6938C137.026 19.9461 137.08 20.1985 137.188 20.4508C137.296 20.6851 137.477 20.9014 137.729 21.0996C137.981 21.2799 138.306 21.4331 138.702 21.5592C139.099 21.6674 139.585 21.7215 140.162 21.7215Z" fill="#CBCBCB"/>
<path d="M153.11 28.0748C153.11 27.2457 153.11 26.4256 153.11 25.6145C153.11 24.7855 153.11 23.9654 153.11 23.1543C153.11 22.3252 153.11 21.5052 153.11 20.6941C153.11 20.3517 153.11 20.0092 153.11 19.6668C153.11 19.3243 153.11 18.9819 153.11 18.6394C154.155 18.6394 155.192 18.6394 156.219 18.6394C157.264 18.6394 158.31 18.6394 159.355 18.6394C160.401 18.6394 161.437 18.6394 162.464 18.6394C162.464 19.6848 162.464 20.7302 162.464 21.7755C162.464 22.8209 162.464 23.8753 162.464 24.9387C162.464 25.984 162.464 27.0294 162.464 28.0748H153.11ZM153.11 18.6394C153.11 17.4138 153.11 16.1882 153.11 14.9626C153.11 13.737 153.11 12.5204 153.11 11.3128H162.464C162.464 11.9076 162.464 12.5024 162.464 13.0972C162.464 13.6919 162.464 14.2867 162.464 14.8815C162.464 15.4763 162.464 16.0711 162.464 16.6658C162.464 16.6658 162.455 16.6748 162.437 16.6929C160.887 17.0173 159.328 17.3417 157.76 17.6661C156.21 17.9906 154.66 18.315 153.11 18.6394Z" fill="#CBCBCB"/>
<path d="M188.682 19.6668C188.682 21.0185 188.402 22.2351 187.844 23.3165C187.285 24.398 186.528 25.3262 185.573 26.1012C184.635 26.8762 183.572 27.471 182.382 27.8855C181.193 28.282 179.958 28.4803 178.679 28.4803C178.03 28.4803 177.354 28.4172 176.651 28.291C175.966 28.1829 175.299 28.0207 174.65 27.8044C174.019 27.5701 173.452 27.2907 172.947 26.9663C172.947 26.9663 172.938 26.9663 172.92 26.9663C172.92 26.9663 172.911 26.9663 172.893 26.9663C172.893 26.9663 172.893 26.9753 172.893 26.9934V31.319H163.539C163.539 30.2016 163.539 29.0931 163.539 27.9937C163.539 26.8762 163.539 25.7677 163.539 24.6683C163.539 23.5508 163.539 22.4424 163.539 21.343C163.539 20.2255 163.539 19.117 163.539 18.0176C163.539 16.9001 163.539 15.7917 163.539 14.6923C163.539 13.5748 163.539 12.4483 163.539 11.3128H172.893C172.893 12.2681 172.893 13.2053 172.893 14.1245C172.893 15.0437 172.893 15.9629 172.893 16.8821C172.893 17.8013 172.893 18.7476 172.893 19.7208C172.893 20.0633 172.983 20.3607 173.163 20.613C173.344 20.8653 173.587 21.0726 173.893 21.2348C174.2 21.397 174.542 21.5232 174.921 21.6133C175.317 21.6854 175.714 21.7215 176.11 21.7215C176.813 21.7215 177.39 21.6223 177.84 21.4241C178.309 21.2258 178.651 20.9735 178.868 20.6671C179.102 20.3607 179.219 20.0453 179.219 19.7208C179.219 19.4325 179.156 19.1711 179.03 18.9368C178.904 18.6845 178.715 18.4682 178.462 18.288C178.21 18.0897 177.885 17.9365 177.489 17.8284C177.092 17.7202 176.633 17.6661 176.11 17.6661C175.353 17.6661 174.677 17.8013 174.082 18.0717C173.506 18.342 173.118 18.7836 172.92 19.3964L175.083 11.3128C175.678 11.1686 176.263 11.0695 176.84 11.0154C177.417 10.9433 177.985 10.9073 178.543 10.9073C179.643 10.9073 180.697 11.0335 181.706 11.2858C182.734 11.5381 183.662 11.9076 184.491 12.3942C185.338 12.8809 186.077 13.4847 186.708 14.2056C187.339 14.9085 187.825 15.7196 188.168 16.6388C188.51 17.54 188.682 18.5493 188.682 19.6668Z" fill="#CBCBCB"/>
<path d="M189.221 16.6658C189.221 15.6385 189.51 14.7463 190.086 13.9893C190.681 13.2323 191.483 12.6015 192.493 12.0969C193.502 11.5742 194.646 11.1867 195.926 10.9343C197.206 10.682 198.539 10.5558 199.927 10.5558C201.64 10.5558 203.226 10.709 204.686 11.0154C206.163 11.3218 207.497 11.7274 208.687 12.232V18.5042C208.182 18.1257 207.515 17.8013 206.686 17.531C205.875 17.2606 205.01 17.0533 204.091 16.9092C203.19 16.765 202.333 16.6929 201.522 16.6929C200.982 16.6929 200.486 16.7289 200.035 16.801C199.603 16.8551 199.251 16.9452 198.981 17.0714C198.729 17.1975 198.603 17.3597 198.603 17.558C198.603 17.6661 198.639 17.7473 198.711 17.8013C198.801 17.8554 198.927 17.8914 199.089 17.9095C199.251 17.9275 199.459 17.9365 199.711 17.9365C200.126 17.9365 200.495 17.9365 200.819 17.9365C201.144 17.9365 201.504 17.9365 201.901 17.9365C202.802 17.9365 203.703 17.9996 204.604 18.1257C205.524 18.2339 206.353 18.4592 207.092 18.8016C207.849 19.1441 208.452 19.6397 208.903 20.2886C209.354 20.9194 209.579 21.7575 209.579 22.8029C209.579 23.9023 209.273 24.8395 208.66 25.6145C208.065 26.3715 207.245 26.9934 206.199 27.48C205.172 27.9486 204.01 28.2911 202.712 28.5073C201.432 28.7236 200.098 28.8318 198.711 28.8318C197.071 28.8318 195.448 28.6786 193.844 28.3722C192.258 28.0658 190.897 27.6152 189.762 27.0204V20.4238C190.213 20.9104 190.852 21.3159 191.681 21.6403C192.529 21.9467 193.439 22.1811 194.412 22.3433C195.403 22.4875 196.332 22.5595 197.197 22.5595C197.755 22.5595 198.26 22.5325 198.711 22.4784C199.161 22.4063 199.513 22.3072 199.765 22.1811C200.035 22.0369 200.171 21.8566 200.171 21.6403C200.171 21.5502 200.144 21.4871 200.089 21.4511C200.035 21.4151 199.945 21.388 199.819 21.37C199.711 21.352 199.558 21.343 199.36 21.343C199.089 21.343 198.81 21.343 198.521 21.343C198.233 21.343 197.972 21.343 197.737 21.343C197.107 21.343 196.404 21.3249 195.629 21.2889C194.872 21.2348 194.115 21.1357 193.358 20.9915C192.601 20.8293 191.907 20.586 191.276 20.2615C190.663 19.9191 190.167 19.4595 189.789 18.8827C189.411 18.288 189.221 17.549 189.221 16.6658Z" fill="#CBCBCB"/>
<path d="M231.976 11.3128C231.976 12.5204 231.976 13.737 231.976 14.9626C231.976 16.1882 231.976 17.4138 231.976 18.6394C231.976 19.6848 231.976 20.7392 231.976 21.8026C231.976 22.8479 231.976 23.8933 231.976 24.9387C231.976 25.984 231.976 27.0294 231.976 28.0748H222.622C222.622 27.3178 222.622 26.5518 222.622 25.7768C222.622 25.0017 222.622 24.2267 222.622 23.4517C222.622 22.6587 222.622 21.8927 222.622 21.1537C222.622 19.4775 222.622 17.8374 222.622 16.2333C222.622 14.6111 222.622 12.971 222.622 11.3128H231.976ZM219.756 11.3128C219.756 12.2681 219.756 13.2323 219.756 14.2056C219.756 15.1609 219.756 16.1161 219.756 17.0714C219.756 18.0266 219.756 18.9909 219.756 19.9642C219.756 20.3607 219.819 20.6851 219.945 20.9374C220.089 21.1717 220.27 21.343 220.486 21.4511C220.72 21.5412 220.964 21.5863 221.216 21.5863C221.468 21.5863 221.721 21.5412 221.973 21.4511C222.243 21.361 222.46 21.2528 222.622 21.1267L220.459 27.8044C219.954 28.0567 219.332 28.264 218.594 28.4262C217.873 28.5884 217.116 28.6695 216.323 28.6695C215.602 28.6695 214.89 28.5794 214.187 28.3992C213.484 28.237 212.844 27.9576 212.267 27.5611C211.709 27.1646 211.258 26.6419 210.915 25.993C210.573 25.3442 210.402 24.5331 210.402 23.5599C210.402 22.2622 210.402 20.9645 210.402 19.6668C210.402 18.3691 210.402 17.0714 210.402 15.7737C210.402 15.0347 210.402 14.2957 210.402 13.5568C210.402 12.7998 210.402 12.0518 210.402 11.3128H219.756Z" fill="#CBCBCB"/>
<path d="M233.054 28.0748C233.054 26.7951 233.054 25.5154 233.054 24.2357C233.054 22.9561 233.054 21.6764 233.054 20.3967C233.054 19.099 233.054 17.8103 233.054 16.5307C233.054 15.6475 233.054 14.7734 233.054 13.9082C233.054 13.0431 233.054 12.178 233.054 11.3128H242.409C242.409 12.5024 242.409 13.6919 242.409 14.8815C242.409 16.053 242.409 17.2336 242.409 18.4231C242.409 20.0272 242.409 21.6403 242.409 23.2625C242.409 24.8666 242.409 26.4707 242.409 28.0748H233.054ZM245.437 28.0748C245.437 26.6689 245.437 25.2451 245.437 23.8032C245.437 22.3613 245.437 20.9374 245.437 19.5316C245.437 19.0089 245.302 18.6394 245.031 18.4231C244.779 18.2069 244.472 18.0897 244.112 18.0717C243.751 18.0537 243.418 18.0987 243.112 18.2069C242.823 18.315 242.643 18.4231 242.571 18.5313L244.734 11.5832C246.05 11.0064 247.473 10.7181 249.005 10.7181C249.762 10.7181 250.483 10.8082 251.168 10.9884C251.853 11.1686 252.466 11.448 253.007 11.8265C253.565 12.205 253.998 12.7097 254.304 13.3405C254.629 13.9533 254.791 14.6923 254.791 15.5574C254.791 16.0801 254.791 16.6118 254.791 17.1525C254.791 17.6932 254.791 18.2249 254.791 18.7476C254.791 18.9999 254.791 19.2612 254.791 19.5316C254.791 19.7839 254.791 20.0362 254.791 20.2886C254.791 20.5409 254.791 20.8022 254.791 21.0726C254.791 22.2261 254.791 23.3886 254.791 24.5602C254.791 25.7317 254.791 26.9032 254.791 28.0748H245.437ZM257.657 28.0748C257.657 26.6689 257.657 25.2451 257.657 23.8032C257.657 22.3613 257.657 20.9374 257.657 19.5316C257.657 19.0089 257.522 18.6394 257.251 18.4231C256.999 18.2069 256.692 18.0897 256.332 18.0717C255.971 18.0537 255.638 18.0987 255.332 18.2069C255.043 18.315 254.863 18.4231 254.791 18.5313L256.683 11.5832C257.332 11.2948 258.026 11.0785 258.765 10.9343C259.522 10.7901 260.27 10.7181 261.009 10.7181C262.054 10.7181 263.028 10.8803 263.929 11.2047C264.848 11.5291 265.587 12.0428 266.146 12.7457C266.723 13.4486 267.011 14.3859 267.011 15.5574V28.0748H257.657Z" fill="#CBCBCB"/>
<path d="M271.737 7.4809C271.737 8.9777 270.523 10.1911 269.026 10.1911C267.53 10.1911 266.316 8.9777 266.316 7.4809C266.316 5.98409 267.53 4.77069 269.026 4.77069C270.523 4.77069 271.737 5.98409 271.737 7.4809Z" fill="#CBCBCB"/>
</g>
<defs>
<clipPath id="clip0_4413_918">
<rect width="272" height="41" fill="white" transform="translate(0.5)"/>
</clipPath>
</defs>
</svg>
