<svg width="232" height="44" viewBox="0 0 232 44" fill="none" xmlns="http://www.w3.org/2000/svg">
<g clip-path="url(#clip0_4413_884)">
<path d="M60.4989 35.2853C60.4712 34.6184 60.0157 34.0494 59.3658 33.8691C54.7617 32.5908 51.9902 30.8063 50.476 29.5342C49.957 29.0981 49.4914 28.645 49.0924 28.1879L48.583 27.6044L49.0092 26.9591L55.7935 16.6851C56.172 16.1119 56.1256 15.3754 55.6779 14.8529C55.3816 14.5069 54.9486 14.3087 54.4898 14.3087C54.2751 14.3087 54.0659 14.352 53.8676 14.4375C50.1553 16.0397 45.6065 16.8869 40.7125 16.8872C39.8612 16.8872 38.9909 16.861 38.1264 16.8096L37.3132 16.7612L37.1682 15.9693C36.4027 11.7832 34.4431 8.59929 31.3439 6.50587C28.1828 4.37071 23.7493 3.28815 18.1666 3.28815C14.9632 3.28815 12.0364 4.03419 10.1455 4.65986L8.88766 5.07603L8.78241 3.76963C8.61235 1.65573 6.79612 0 4.64782 0C2.36081 0 0.5 1.83833 0.5 4.0977C0.5 5.47018 1.19735 6.74815 2.36548 7.51621L2.73515 7.75926L2.81215 8.19131L8.2463 38.636C8.37774 39.3718 9.02169 39.9058 9.77789 39.9058H11.8518C12.3127 39.9058 12.7469 39.7057 13.043 39.3569C13.3396 39.0078 13.4635 38.5507 13.3834 38.1023L11.9417 30.0247L11.8106 29.2899L12.4781 28.9411C13.2784 28.5231 17.5449 26.4381 22.978 26.4381C23.7589 26.4381 24.5402 26.4819 25.3003 26.5682L26.0689 26.6556L26.2032 27.4083L27.4911 34.6238C27.7579 35.944 28.6937 36.7764 29.4821 37.1152C30.1755 37.4141 36.4017 40 44.1788 40C49.9528 40 54.9484 38.4567 59.4869 36.7889C60.1199 36.5561 60.5266 35.9517 60.4989 35.2853Z" fill="#CBCBCB"/>
<path fill-rule="evenodd" clip-rule="evenodd" d="M19.2809 17.3967C25.1789 17.0106 32.6521 17.9481 37.9456 24.073C38.4132 24.6141 38.0886 24.8899 38.5196 25.5146V26.3423L37.7443 26.8643C32.9869 19.9692 25.5537 18.8444 19.408 19.2462C16.6963 19.4416 14.3136 20.0609 12.6064 20.6336C11.7539 20.9196 11.0739 21.1926 10.6103 21.3925C10.3786 21.4924 10.2013 21.5739 10.0838 21.6294C10.0251 21.6572 9.98135 21.6784 9.95331 21.6922C9.93929 21.6991 9.92919 21.7042 9.92311 21.7072L9.91664 21.7105C9.91664 21.7105 9.91697 21.7103 9.4861 20.887C9.05523 20.0637 9.05566 20.0634 9.05566 20.0634L9.05753 20.0625L9.06138 20.0605L9.07371 20.0543C9.08398 20.0492 9.09832 20.042 9.11666 20.033C9.15334 20.015 9.20599 19.9894 9.27394 19.9573C9.40982 19.8931 9.60695 19.8026 9.85977 19.6936C10.3652 19.4757 11.0945 19.1832 12.003 18.8784C13.817 18.2698 16.3615 17.6067 19.2748 17.3972L19.2778 17.3969L19.2809 17.3967Z" fill="#CBCBCB"/>
<path fill-rule="evenodd" clip-rule="evenodd" d="M18.5996 10.6465C24.9918 10.4593 33.0056 11.5823 37.2122 18.5463C37.6707 19.3053 37.0491 19.685 37.41 20.5886L37.5722 21.3774L36.6996 21.7177C33.5004 13.71 25.6123 12.296 18.6578 12.4993C15.8694 12.5969 13.3472 13.1955 11.516 13.7742C10.6022 14.063 9.86592 14.3451 9.36118 14.5535C9.10894 14.6576 8.91493 14.7432 8.78591 14.8018C8.72141 14.8311 8.67319 14.8536 8.6421 14.8683C8.62655 14.8757 8.61529 14.8811 8.60842 14.8844L8.60142 14.8878C8.60142 14.8878 8.6011 14.888 8.18315 14.0582C7.76519 13.2284 7.76563 13.2282 7.76563 13.2282L7.76756 13.2272L7.77164 13.2252L7.78486 13.2188C7.79592 13.2135 7.81146 13.206 7.83134 13.1966C7.87111 13.1778 7.92831 13.1511 8.00213 13.1176C8.14973 13.0505 8.36384 12.9562 8.63761 12.8431C9.18487 12.6172 9.9721 12.3159 10.9443 12.0086C12.8846 11.3955 15.5835 10.7517 18.5942 10.6466L18.5969 10.6465H18.5996Z" fill="#CBCBCB"/>
<path d="M6.11248 6.21108C6.7935 5.74957 7.24042 4.97511 7.24042 4.09769C7.24042 2.68321 6.07981 1.53662 4.64804 1.53662C3.21627 1.53662 2.05566 2.68321 2.05566 4.09769C2.05566 5.3293 2.93577 6.35808 4.10856 6.60318L9.77837 38.3688H11.8523L6.11248 6.21108Z" fill="#CBCBCB"/>
<path d="M8.83606 12.7617L7.84863 7.22944C7.84863 7.22944 12.5787 4.82434 18.1658 4.82434C25.4247 4.82434 33.9472 6.50542 35.667 16.4126C35.6679 16.4183 35.6689 16.424 35.6699 16.4297C31.238 11.3484 24.2778 10.4803 18.5978 10.6466L18.5952 10.6467L18.5925 10.6468C15.5818 10.7518 12.8829 11.3956 10.9426 12.0088C10.0833 12.2803 9.3684 12.5473 8.83606 12.7617Z" fill="#CBCBCB"/>
<path d="M9.16992 14.6329L10.058 19.6087C10.5487 19.4025 11.2064 19.1452 12.0014 18.8785C13.8154 18.27 16.3599 17.6068 19.2732 17.3973L19.2762 17.3971L19.2793 17.3969C24.7676 17.0376 31.62 17.8244 36.8107 22.8708C36.7192 22.3615 36.6264 21.8435 36.5329 21.3205C33.2343 13.6632 25.4938 12.2996 18.656 12.4994C15.8676 12.597 13.3454 13.1956 11.5142 13.7743C10.6004 14.0631 9.86412 14.3452 9.35938 14.5536C9.29203 14.5814 9.22884 14.6079 9.16992 14.6329Z" fill="#CBCBCB"/>
<path d="M37.4592 26.4643C32.6937 19.9257 25.4315 18.8524 19.4067 19.2463C16.695 19.4417 14.3123 20.061 12.6051 20.6338C11.7526 20.9198 11.0726 21.1928 10.609 21.3927C10.531 21.4263 10.4591 21.4579 10.3936 21.4871L11.5054 27.7159C11.5054 27.7159 26.023 19.4239 38.3257 31.3073C38.1659 30.3734 37.8575 28.6675 37.4774 26.5647C37.4714 26.5313 37.4653 26.4979 37.4592 26.4643Z" fill="#CBCBCB"/>
<path d="M30.126 35.7161C30.126 35.7161 36.3485 38.4631 44.1788 38.4631C49.4554 38.4631 54.1077 37.1257 58.9445 35.3483C55.3509 34.3508 52.7613 33.0514 50.9202 31.8002C47.3228 32.592 43.6831 32.7427 40.0517 32.3186C40.1301 32.7702 40.208 33.2219 40.2853 33.6737L30.126 35.7161Z" fill="#CBCBCB"/>
<path d="M39.7281 30.4713C42.8469 30.8868 45.963 30.856 49.0457 30.3375C47.3097 28.7708 46.76 27.5515 46.76 27.5515L48.7439 24.5471C44.7358 25.488 41.319 25.3947 38.7988 25.2685C39.1109 27.0023 39.4223 28.7363 39.7281 30.4713Z" fill="#CBCBCB"/>
<path d="M38.4736 23.4564C41.403 23.609 45.4379 23.7812 50.2427 22.2786L54.4905 15.8456C49.2917 18.0893 43.1843 18.7073 37.5557 18.3127C37.8577 20.0279 38.1652 21.7423 38.4736 23.4564Z" fill="#CBCBCB"/>
<path d="M142.95 19.3563V37.8242H145.614V19.3563H142.95Z" fill="#CBCBCB"/>
<path d="M142.878 16.1522C143.19 16.4163 143.658 16.5482 144.282 16.5482C144.882 16.5482 145.338 16.4163 145.65 16.1522C145.962 15.8883 146.118 15.5043 146.118 15.0002C146.118 14.4962 145.962 14.1123 145.65 13.8483C145.338 13.5842 144.87 13.4523 144.246 13.4523C143.646 13.4523 143.19 13.5842 142.878 13.8483C142.566 14.1123 142.41 14.4843 142.41 14.9642C142.41 15.4683 142.566 15.8643 142.878 16.1522Z" fill="#CBCBCB"/>
<path fill-rule="evenodd" clip-rule="evenodd" d="M149.48 43.0083L149.516 28.1403L149.48 19.3563H152.036L151.604 25.0443H151.964C152.276 23.6042 152.732 22.4282 153.332 21.5162C153.932 20.6042 154.652 19.9323 155.492 19.5002C156.356 19.0682 157.328 18.8523 158.408 18.8523C159.872 18.8523 161.156 19.2242 162.26 19.9683C163.388 20.6882 164.264 21.7683 164.888 23.2083C165.512 24.6483 165.824 26.4122 165.824 28.5002C165.824 30.5883 165.512 32.3643 164.888 33.8282C164.288 35.2922 163.448 36.4083 162.368 37.1763C161.288 37.9203 160.028 38.2922 158.588 38.2922C157.268 38.2922 156.152 37.9923 155.24 37.3922C154.328 36.7922 153.596 35.9642 153.044 34.9083C152.516 33.8282 152.144 32.6042 151.928 31.2363H151.496C151.64 32.2443 151.76 33.1803 151.856 34.0443C151.952 34.8843 152.024 35.6643 152.072 36.3843C152.12 37.1042 152.144 37.7762 152.144 38.4003V43.0083H149.48ZM157.976 35.8442C159.056 35.8442 159.968 35.5563 160.712 34.9802C161.48 34.3802 162.068 33.5403 162.476 32.4603C162.908 31.3563 163.124 30.0243 163.124 28.4642C163.124 27.0002 162.932 25.7402 162.548 24.6843C162.164 23.6042 161.588 22.7762 160.82 22.2003C160.076 21.6002 159.14 21.3003 158.012 21.3003C157.028 21.3003 156.164 21.5283 155.42 21.9843C154.7 22.4163 154.1 22.9802 153.62 23.6763C153.164 24.3483 152.816 25.0682 152.576 25.8363C152.336 26.6042 152.216 27.3242 152.216 27.9962V28.3922C152.216 28.8003 152.276 29.3282 152.396 29.9763C152.516 30.6002 152.708 31.2483 152.972 31.9203C153.236 32.5923 153.584 33.2283 154.016 33.8282C154.472 34.4282 155.024 34.9203 155.672 35.3043C156.344 35.6643 157.112 35.8442 157.976 35.8442Z" fill="#CBCBCB"/>
<path d="M172.833 37.8962C173.817 38.1603 174.909 38.2922 176.109 38.2922C177.645 38.2922 178.977 38.0883 180.105 37.6803C181.233 37.2483 182.109 36.6362 182.733 35.8442C183.357 35.0522 183.669 34.0923 183.669 32.9642C183.669 31.9323 183.453 31.0923 183.021 30.4442C182.613 29.7963 182.061 29.2803 181.365 28.8962C180.669 28.5123 179.889 28.2242 179.025 28.0322C178.185 27.8163 177.333 27.6243 176.469 27.4563C175.485 27.2883 174.585 27.0963 173.769 26.8802C172.953 26.6643 172.305 26.3523 171.825 25.9442C171.345 25.5123 171.105 24.9122 171.105 24.1443C171.105 23.2083 171.501 22.4763 172.293 21.9482C173.109 21.4203 174.177 21.1562 175.497 21.1562C176.481 21.1562 177.345 21.3123 178.089 21.6243C178.857 21.9363 179.445 22.4282 179.853 23.1002C180.285 23.7483 180.477 24.5883 180.429 25.6202L182.841 25.1882C182.889 23.7722 182.601 22.5963 181.977 21.6603C181.353 20.7242 180.489 20.0283 179.385 19.5723C178.281 19.0923 177.033 18.8523 175.641 18.8523C174.201 18.8523 172.941 19.0803 171.861 19.5363C170.805 19.9923 169.989 20.6283 169.413 21.4442C168.837 22.2603 168.549 23.2202 168.549 24.3242C168.549 25.3082 168.741 26.1123 169.125 26.7363C169.533 27.3602 170.073 27.8643 170.745 28.2483C171.441 28.6083 172.221 28.9083 173.085 29.1483C173.949 29.3643 174.825 29.5563 175.713 29.7242C176.721 29.9163 177.633 30.1323 178.449 30.3723C179.265 30.5883 179.901 30.9003 180.357 31.3082C180.837 31.7163 181.077 32.3043 181.077 33.0723C181.077 33.9603 180.657 34.6803 179.817 35.2323C178.977 35.7603 177.777 36.0243 176.217 36.0243C175.089 36.0243 174.093 35.8683 173.229 35.5563C172.389 35.2202 171.753 34.7042 171.321 34.0083C170.889 33.3123 170.721 32.3762 170.817 31.2003L168.333 31.5243C168.261 32.7003 168.405 33.7202 168.765 34.5842C169.125 35.4482 169.641 36.1562 170.313 36.7083C171.009 37.2363 171.849 37.6323 172.833 37.8962Z" fill="#CBCBCB"/>
<path d="M205.39 37.8242V29.0403L205.318 19.3563H207.874L207.298 27.4923H207.694C207.91 25.5243 208.27 23.9043 208.774 22.6323C209.302 21.3602 209.986 20.4122 210.826 19.7883C211.666 19.1643 212.674 18.8523 213.85 18.8523C215.098 18.8523 216.106 19.1882 216.874 19.8602C217.642 20.5322 218.182 21.5162 218.494 22.8123C218.83 24.0842 218.938 25.6323 218.818 27.4563H219.214C219.382 25.5363 219.718 23.9403 220.222 22.6682C220.726 21.3962 221.41 20.4482 222.274 19.8242C223.138 19.1763 224.206 18.8523 225.478 18.8523C226.414 18.8523 227.242 19.0322 227.962 19.3922C228.682 19.7523 229.282 20.3043 229.762 21.0482C230.242 21.7683 230.602 22.6803 230.842 23.7843C231.082 24.8883 231.202 26.1603 231.202 27.6002V37.8242H228.538V28.0322C228.538 26.4962 228.406 25.2363 228.142 24.2523C227.902 23.2683 227.518 22.5482 226.99 22.0923C226.462 21.6123 225.778 21.3723 224.938 21.3723C223.834 21.3723 222.886 21.7803 222.094 22.5963C221.326 23.4122 220.726 24.5522 220.294 26.0162C219.886 27.4563 219.658 29.1722 219.61 31.1643V37.8242H216.982V27.9962C216.982 26.5083 216.85 25.2722 216.586 24.2883C216.322 23.3043 215.926 22.5723 215.398 22.0923C214.894 21.6123 214.222 21.3723 213.382 21.3723C212.302 21.3723 211.366 21.7803 210.574 22.5963C209.806 23.3883 209.194 24.5283 208.738 26.0162C208.306 27.4802 208.066 29.2083 208.018 31.2003V37.8242H205.39Z" fill="#CBCBCB"/>
<path d="M192.602 38.2922C190.442 38.2922 188.846 37.5123 187.814 35.9523C186.806 34.3922 186.302 31.9923 186.302 28.7523V19.3563H189.002V28.7163C189.002 31.1882 189.326 33.0002 189.974 34.1522C190.622 35.2803 191.69 35.8442 193.178 35.8442C194.066 35.8442 194.846 35.6403 195.518 35.2323C196.19 34.8003 196.766 34.1763 197.246 33.3602C197.726 32.5443 198.098 31.5123 198.362 30.2643C198.626 29.0162 198.77 27.5643 198.794 25.9083V19.3563H201.458V28.6443L201.494 37.8242H198.974L199.55 30.3723H199.154C198.914 32.1963 198.506 33.6963 197.93 34.8723C197.378 36.0243 196.658 36.8883 195.77 37.4642C194.906 38.0162 193.85 38.2922 192.602 38.2922Z" fill="#CBCBCB"/>
<path fill-rule="evenodd" clip-rule="evenodd" d="M130.847 38.3282C129.047 38.3282 127.451 37.9563 126.059 37.2123C124.667 36.4683 123.575 35.3643 122.783 33.9003C121.991 32.4363 121.595 30.6123 121.595 28.4282C121.595 26.1963 122.003 24.3483 122.819 22.8843C123.635 21.4203 124.739 20.3282 126.131 19.6083C127.523 18.8883 129.095 18.5283 130.847 18.5283C132.623 18.5283 134.207 18.9003 135.599 19.6443C136.991 20.3883 138.083 21.4923 138.875 22.9563C139.667 24.4203 140.063 26.2562 140.063 28.4642C140.063 30.6963 139.655 32.5443 138.839 34.0083C138.047 35.4723 136.943 36.5643 135.527 37.2843C134.135 37.9802 132.575 38.3282 130.847 38.3282ZM130.955 34.8363C131.915 34.8363 132.719 34.5963 133.367 34.1163C134.039 33.6362 134.555 32.9403 134.915 32.0283C135.275 31.0923 135.455 29.9763 135.455 28.6803C135.455 27.3123 135.263 26.1483 134.879 25.1882C134.519 24.2283 133.979 23.4843 133.259 22.9563C132.563 22.4282 131.723 22.1643 130.739 22.1643C129.779 22.1643 128.963 22.4163 128.291 22.9203C127.619 23.4003 127.103 24.1083 126.743 25.0443C126.383 25.9563 126.203 27.0603 126.203 28.3563C126.203 30.3962 126.623 31.9923 127.463 33.1443C128.303 34.2722 129.467 34.8363 130.955 34.8363Z" fill="#CBCBCB"/>
<path fill-rule="evenodd" clip-rule="evenodd" d="M105.679 43.1522C106.927 43.4883 108.595 43.6562 110.683 43.6562C113.011 43.6562 114.931 43.4403 116.443 43.0083C117.955 42.6002 119.083 41.9642 119.827 41.1002C120.595 40.2363 120.979 39.1323 120.979 37.7883C120.979 36.5883 120.715 35.6643 120.187 35.0162C119.683 34.3442 119.047 33.8643 118.279 33.5763C117.535 33.2883 116.791 33.1202 116.047 33.0723C115.303 33.0002 114.703 32.9642 114.247 32.9642H108.775C108.415 32.9642 108.079 32.9523 107.767 32.9282C107.479 32.8802 107.239 32.8203 107.047 32.7483C106.879 32.6522 106.795 32.5083 106.795 32.3163C106.795 32.1002 106.939 31.8723 107.227 31.6323C107.539 31.3683 108.007 31.0923 108.631 30.8043C109.135 30.9003 109.603 30.9723 110.035 31.0203C110.467 31.0443 110.899 31.0563 111.331 31.0563C112.987 31.0563 114.379 30.8523 115.507 30.4442C116.659 30.0123 117.523 29.4243 118.099 28.6803C118.675 27.9122 118.963 27.0482 118.963 26.0883C118.963 25.1283 118.615 24.3242 117.919 23.6763C117.223 23.0043 116.023 22.5243 114.319 22.2363V21.8043L120.547 22.6323V18.9603H111.187C109.459 18.9603 107.983 19.2242 106.759 19.7523C105.535 20.2562 104.599 20.9763 103.951 21.9122C103.303 22.8242 102.979 23.8802 102.979 25.0803C102.979 26.4482 103.363 27.5763 104.131 28.4642C104.923 29.3282 106.039 29.8683 107.479 30.0842V30.5162C105.967 30.7083 104.887 31.0563 104.239 31.5603C103.591 32.0643 103.267 32.6403 103.267 33.2883C103.267 33.9843 103.603 34.5123 104.275 34.8723C104.971 35.2083 105.967 35.3762 107.263 35.3762V35.7722C105.583 36.0123 104.311 36.4683 103.447 37.1403C102.607 37.8123 102.187 38.6763 102.187 39.7323C102.187 40.5243 102.451 41.2083 102.979 41.7843C103.531 42.3843 104.431 42.8403 105.679 43.1522ZM114.535 39.4802C113.647 39.6483 112.375 39.7323 110.719 39.7323C109.783 39.7323 108.967 39.6963 108.271 39.6243C107.599 39.5522 107.071 39.3962 106.687 39.1562C106.303 38.9163 106.111 38.5563 106.111 38.0763C106.111 37.5963 106.315 37.1763 106.723 36.8163C107.131 36.4563 107.851 36.1202 108.883 35.8082H113.527C113.839 35.8082 114.187 35.8203 114.571 35.8442C114.955 35.8683 115.327 35.9403 115.687 36.0603C116.071 36.1562 116.383 36.3363 116.623 36.6002C116.863 36.8403 116.983 37.2003 116.983 37.6803C116.983 38.1123 116.803 38.4843 116.443 38.7963C116.083 39.1083 115.447 39.3363 114.535 39.4802ZM113.707 27.5643C113.107 28.1403 112.255 28.4282 111.151 28.4282C110.407 28.4282 109.759 28.2963 109.207 28.0322C108.655 27.7683 108.223 27.3962 107.911 26.9163C107.623 26.4122 107.479 25.8483 107.479 25.2242C107.479 24.2643 107.803 23.4723 108.451 22.8483C109.099 22.2242 109.975 21.9122 111.079 21.9122C112.183 21.9122 113.047 22.2242 113.671 22.8483C114.319 23.4723 114.643 24.2762 114.643 25.2603C114.643 26.2202 114.331 26.9883 113.707 27.5643Z" fill="#CBCBCB"/>
<path fill-rule="evenodd" clip-rule="evenodd" d="M91.7706 38.3282C89.9706 38.3282 88.3746 37.9563 86.9826 37.2123C85.5906 36.4683 84.4986 35.3643 83.7066 33.9003C82.9146 32.4363 82.5186 30.6123 82.5186 28.4282C82.5186 26.1963 82.9266 24.3483 83.7426 22.8843C84.5586 21.4203 85.6626 20.3282 87.0546 19.6083C88.4466 18.8883 90.0186 18.5283 91.7706 18.5283C93.5466 18.5283 95.1306 18.9003 96.5226 19.6443C97.9146 20.3883 99.0066 21.4923 99.7986 22.9563C100.59 24.4203 100.986 26.2562 100.986 28.4642C100.986 30.6963 100.578 32.5443 99.7626 34.0083C98.9706 35.4723 97.8666 36.5643 96.4506 37.2843C95.0586 37.9802 93.4986 38.3282 91.7706 38.3282ZM91.8785 34.8363C92.8385 34.8363 93.6426 34.5963 94.2906 34.1163C94.9626 33.6362 95.4786 32.9403 95.8386 32.0283C96.1986 31.0923 96.3785 29.9763 96.3785 28.6803C96.3785 27.3123 96.1866 26.1483 95.8026 25.1882C95.4426 24.2283 94.9025 23.4843 94.1825 22.9563C93.4865 22.4282 92.6466 22.1643 91.6626 22.1643C90.7026 22.1643 89.8866 22.4163 89.2146 22.9203C88.5426 23.4003 88.0265 24.1083 87.6665 25.0443C87.3065 25.9563 87.1265 27.0603 87.1265 28.3563C87.1265 30.3962 87.5466 31.9923 88.3866 33.1443C89.2266 34.2722 90.3905 34.8363 91.8785 34.8363Z" fill="#CBCBCB"/>
<path d="M67.4648 14.0643V37.8242H82.0089V33.9003H72.0368V14.0643H67.4648Z" fill="#CBCBCB"/>
</g>
<defs>
<clipPath id="clip0_4413_884">
<rect width="231" height="44" fill="white" transform="translate(0.5)"/>
</clipPath>
</defs>
</svg>
