<svg width="169" height="40" viewBox="0 0 169 40" fill="none" xmlns="http://www.w3.org/2000/svg">
<g clip-path="url(#clip0_4413_952)">
<path d="M80.9218 0C79.9847 4.12657 79.6149 5.75557 74.0244 6.26504C79.6149 5.75557 79.245 7.38457 78.308 11.5112C79.2394 7.40909 79.6149 5.75557 85.1175 5.2541C79.6149 5.75557 79.9903 4.10205 80.9218 0Z" fill="#CBCBCB"/>
<path d="M83.3385 10.9479C81.7664 11.9403 79.8578 12.1762 78.0114 12.3937C75.9889 12.6319 73.9868 12.8788 72.0077 13.1337C72.5319 10.827 72.776 9.89235 75.9091 9.60682C72.7431 9.89534 72.9591 8.94397 73.495 6.58378C72.9559 8.95808 72.7431 9.89534 69.5266 10.1884C72.7099 9.89837 72.5343 10.8133 72.0077 13.1337C66.0995 13.8948 60.3956 14.7277 54.9619 15.6149C61.2575 14.8473 70.0077 14.0994 77.5175 13.4576C79.9553 13.2492 83.2255 12.9916 83.9202 15.3376C84.14 16.0798 84.1438 16.9944 84.011 18.0869H80.6881L77.9451 30.9913H85.2451L87.9881 18.0869H84.2839C84.8508 16.3624 85.5589 15.017 86.7195 13.9796C88.197 12.6591 90.2857 12.3827 92.2621 12.2401C132.431 9.34192 164.057 11.4597 164.577 17.3682C164.726 19.0505 162.337 20.8712 157.92 22.7111V22.7178L157.905 22.7238V22.7111C159.542 22.0188 162.836 20.303 163.038 18.0869H156.045L153.281 24.4703C153.279 24.4817 153.27 24.4932 153.256 24.5047H153.238L153.246 24.4703C153.233 23.7591 153.214 23.0479 153.189 22.3368C153.176 21.6256 153.162 20.9201 153.146 20.2204C153.133 19.5092 153.115 18.7981 153.09 18.0869H143.714L140.971 30.9913H147.392L148.902 23.8853L148.906 23.8681H148.923C148.926 23.8681 148.929 23.8684 148.931 23.8691C148.935 23.8706 148.938 23.8737 148.938 23.8785C148.938 23.8798 148.938 23.8813 148.938 23.8829L148.937 23.8853C148.979 25.0667 149.016 26.2482 149.046 27.4297C149.076 28.6112 149.111 29.7984 149.151 30.9913H153.636L156.882 23.8337L156.885 23.8165H156.903C156.91 23.8165 156.914 23.8185 156.916 23.8225C156.917 23.8232 156.917 23.8241 156.917 23.825V23.8264C156.917 23.8285 156.917 23.8309 156.917 23.8337L155.395 30.9913H162.168L164.589 19.6002C167.052 18.1021 168.312 16.6537 168.165 15.3085C167.463 8.85559 134.633 7.04705 92.964 10.8331C92.8855 10.8403 92.8061 10.8476 92.7262 10.855L92.7154 10.856C90.7526 11.0376 88.3955 11.2556 87.3965 9.59967C86.4371 8.00947 87.0493 5.31332 87.929 1.43927C86.85 6.19082 86.1767 9.15638 83.3385 10.9479Z" fill="#CBCBCB"/>
<path fill-rule="evenodd" clip-rule="evenodd" d="M55.7635 18.3278C54.5105 17.8231 52.8402 17.5707 50.7529 17.5707C49.7561 17.5707 48.828 17.6338 47.9685 17.76C47.1208 17.8861 46.3371 18.0697 45.6175 18.3106C44.8979 18.5515 44.2447 18.8382 43.658 19.1709C43.0855 19.492 42.5677 19.8591 42.1047 20.272C41.6441 20.6735 41.2407 21.1094 40.8945 21.5797C40.5624 22.0385 40.2841 22.5203 40.0595 23.025C39.8492 23.5182 39.6879 24.0287 39.5757 24.5563C39.4392 25.1987 39.3837 25.8181 39.4094 26.4146C39.4376 26.9996 39.5433 27.5502 39.7268 28.0663C39.9244 28.571 40.2021 29.0299 40.56 29.4428C40.9296 29.8558 41.3817 30.2113 41.9163 30.5096C42.4535 30.7963 43.0744 31.02 43.779 31.1806C44.4954 31.3412 45.2992 31.4215 46.1905 31.4215C46.6009 31.4215 46.9564 31.4043 47.2569 31.3699C47.5666 31.3469 47.8859 31.3068 48.2147 31.2494C48.5462 30.5727 48.8789 29.8902 49.2128 29.2019C49.5609 28.5022 49.902 27.8082 50.2358 27.12C50.331 26.9238 50.4261 26.7281 50.5211 26.5328C50.6094 26.3513 50.6977 26.1701 50.7858 25.9893C50.9355 25.6826 51.0848 25.377 51.2339 25.0725L49.9759 30.9913H57.4342L58.6923 25.0725H51.2339L59.206 23.3175C59.25 22.2278 58.9999 21.2528 58.4557 20.3925C57.9139 19.5207 57.0165 18.8325 55.7635 18.3278ZM51.2339 25.0725C51.0421 25.3134 50.7672 25.5026 50.4096 25.6403C50.0545 25.7665 49.5779 25.8296 48.9798 25.8296C48.5928 25.8296 48.2671 25.7894 48.0028 25.7091C47.7384 25.6288 47.5329 25.5199 47.3862 25.3822C47.2396 25.2446 47.1423 25.0954 47.0943 24.9349C47.0488 24.7628 47.0455 24.585 47.0845 24.4015C47.1382 24.1491 47.2527 23.914 47.428 23.696C47.6175 23.4666 47.8864 23.2773 48.2347 23.1282C48.5948 22.9791 49.0503 22.9046 49.6015 22.9046C50.1878 22.9046 50.6374 22.9963 50.9502 23.1798C51.263 23.3634 51.4439 23.6157 51.4929 23.9369C51.5419 24.2581 51.4556 24.6366 51.2339 25.0725Z" fill="#CBCBCB"/>
<path d="M71.8052 17.6053C71.4139 17.5822 71.0061 17.5707 70.5818 17.5707C69.503 17.5707 68.495 17.651 67.5579 17.8116C66.635 17.9607 65.7841 18.1844 65.0054 18.4826C64.2291 18.7694 63.5273 19.1192 62.9001 19.5322C62.2871 19.9337 61.744 20.3925 61.2707 20.9087C60.8092 21.4248 60.42 21.9869 60.1031 22.5948C59.798 23.2028 59.5735 23.8451 59.4297 24.5219C59.4161 24.5855 59.4034 24.649 59.3916 24.7124C67.7405 24.5412 69.7448 22.5074 71.8052 17.6053Z" fill="#CBCBCB"/>
<path d="M59.3918 24.7124C59.3072 25.1636 59.2642 25.6108 59.2627 26.0532C59.2727 26.558 59.3462 27.0397 59.4832 27.4985C59.6319 27.9574 59.8442 28.3932 60.1199 28.8062C60.4099 29.2077 60.7716 29.5747 61.2051 29.9074C61.6504 30.24 62.1817 30.5268 62.7989 30.7677C63.4186 30.9971 64.1254 31.1749 64.9195 31.301C65.4067 31.3845 65.9295 31.4427 66.4878 31.4755C68.1855 26.5769 67.7261 24.5855 59.3918 24.7124Z" fill="#CBCBCB"/>
<path d="M66.5488 31.479C66.8925 31.498 67.2495 31.5075 67.6198 31.5075C69.0153 31.5075 70.2676 31.3813 71.3767 31.129C72.495 30.8881 73.4816 30.5497 74.3365 30.1138C75.1939 29.6665 75.9251 29.1503 76.5302 28.5653C77.1378 27.9688 77.625 27.3322 77.9916 26.6555C78.3607 25.9672 78.6233 25.256 78.7793 24.5219C78.7904 24.4696 78.801 24.4176 78.8109 24.3658C70.5966 24.5352 68.5992 26.5973 66.5488 31.479Z" fill="#CBCBCB"/>
<path d="M78.8108 24.3658C70.6218 24.4895 70.182 22.4744 71.8669 17.609C73.4379 17.7069 74.7405 17.9924 75.7745 18.4654C77.0784 19.0619 77.9771 19.882 78.4706 20.9259C78.9449 21.9293 79.0583 23.0762 78.8108 24.3658Z" fill="#CBCBCB"/>
<path fill-rule="evenodd" clip-rule="evenodd" d="M116.571 23.2393L123.695 22.9218C124.044 22.1073 124.118 21.3732 123.917 20.7194C123.716 20.0656 123.273 19.5035 122.587 19.0332C121.913 18.5629 121.028 18.2016 119.932 17.9492C118.849 17.6969 117.585 17.5707 116.143 17.5707C115.123 17.5707 114.13 17.6338 113.165 17.76C112.212 17.8861 111.317 18.0697 110.48 18.3106C109.655 18.5515 108.91 18.8554 108.246 19.2225C107.595 19.5781 107.061 19.9968 106.642 20.4785C106.225 20.9488 105.955 21.4765 105.83 22.0615C105.713 22.612 105.748 23.111 105.934 23.5584C106.123 23.9942 106.518 24.3728 107.118 24.694C107.718 25.0151 108.573 25.2675 109.683 25.451C110.418 25.5647 111.289 25.6408 112.296 25.6794L105.013 26.1565C104.731 27.0971 104.717 27.9057 104.972 28.5825C105.239 29.2593 105.736 29.8156 106.464 30.2515C107.195 30.6759 108.125 30.9913 109.253 31.1978C110.382 31.4043 111.662 31.5075 113.093 31.5075C114.383 31.5075 115.605 31.41 116.761 31.215C117.926 31.0315 118.969 30.7562 119.892 30.3891C120.828 30.0106 121.589 29.546 122.176 28.9955C122.776 28.4334 123.153 27.791 123.306 27.0684C123.448 26.4031 123.417 25.8296 123.215 25.3478C123.015 24.8545 122.596 24.4531 121.958 24.1434C121.323 23.8222 120.429 23.587 119.276 23.4379C118.509 23.3387 117.607 23.2725 116.571 23.2393ZM116.37 23.2333C115.909 23.2206 115.421 23.2143 114.908 23.2143H114.469C114.152 23.2143 113.898 23.197 113.705 23.1626C113.525 23.1282 113.397 23.0709 113.32 22.9906C113.246 22.8988 113.223 22.7841 113.252 22.6465C113.277 22.5318 113.335 22.4228 113.427 22.3195C113.531 22.2163 113.655 22.1303 113.799 22.0615C113.957 21.9812 114.133 21.9238 114.328 21.8894C114.525 21.8435 114.741 21.8206 114.976 21.8206C115.351 21.8206 115.674 21.8722 115.946 21.9754C116.231 22.0672 116.421 22.2221 116.515 22.44C116.611 22.6433 116.562 22.9077 116.37 23.2333ZM112.614 25.6902C112.461 26.0198 112.428 26.2957 112.517 26.5178C112.621 26.7472 112.819 26.9193 113.111 27.034C113.404 27.1487 113.743 27.206 114.13 27.206C114.365 27.206 114.579 27.1888 114.774 27.1544C114.981 27.12 115.168 27.0684 115.335 26.9996C115.502 26.9307 115.638 26.8447 115.742 26.7415C115.848 26.6268 115.916 26.5006 115.945 26.3629C116.004 26.0876 115.895 25.9098 115.619 25.8296C115.355 25.7493 114.947 25.7091 114.396 25.7091H113.956C113.486 25.7091 113.039 25.7028 112.614 25.6902Z" fill="#CBCBCB"/>
<path d="M133.08 18.0869H125.78L124.05 26.2253C123.902 26.925 123.925 27.5616 124.119 28.1352C124.317 28.6972 124.646 29.1904 125.107 29.6149C125.582 30.0278 126.152 30.3777 126.819 30.6644C127.496 30.9512 128.237 31.1634 129.04 31.301C129.855 31.4387 130.691 31.5075 131.547 31.5075C132.626 31.5075 133.699 31.3985 134.765 31.1806C135.843 30.9627 136.839 30.6357 137.753 30.1999C138.669 29.7525 139.437 29.2019 140.057 28.5481C140.69 27.8828 141.101 27.1085 141.289 26.2253L143.019 18.0869H135.719L134.274 24.8832C134.204 25.2159 134.015 25.4682 133.709 25.6403C133.403 25.8123 133.079 25.8984 132.739 25.8984C132.575 25.8984 132.416 25.8754 132.261 25.8296C132.119 25.7837 131.991 25.7206 131.879 25.6403C131.782 25.5485 131.705 25.4395 131.65 25.3134C131.606 25.1872 131.603 25.0381 131.639 24.866L133.08 18.0869Z" fill="#CBCBCB"/>
<path fill-rule="evenodd" clip-rule="evenodd" d="M99.8278 18.0869C100.918 18.0869 101.837 18.236 102.582 18.5342C103.342 18.821 103.932 19.2167 104.353 19.7215C104.787 20.2147 105.073 20.7767 105.208 21.4076C105.344 22.0385 105.34 22.6923 105.196 23.3691C105.042 24.0917 104.755 24.78 104.335 25.4338C103.929 26.0762 103.396 26.6497 102.738 27.1544C102.091 27.6591 101.331 28.0606 100.459 28.3588C99.5888 28.6456 98.6201 28.789 97.553 28.789H93.7711L93.7499 28.8062H93.7323L93.7286 28.8234L93.2678 30.9913H85.9502L88.6931 18.0869H99.8278ZM96.183 25.0553C96.5349 25.0553 96.8402 24.9979 97.0991 24.8832C97.3722 24.757 97.5869 24.6022 97.7432 24.4187C97.9019 24.2237 98.002 24.0287 98.0434 23.8337C98.0873 23.6272 98.0689 23.4379 97.9882 23.2659C97.91 23.0823 97.7657 22.9332 97.5556 22.8185C97.3454 22.7038 97.0586 22.6465 96.6951 22.6465H95.0768C95.065 22.6465 95.052 22.6522 95.0379 22.6637L95.0342 22.6809L94.5332 25.0381C94.5449 25.0381 94.5496 25.0438 94.5471 25.0553H96.183Z" fill="#CBCBCB"/>
<path fill-rule="evenodd" clip-rule="evenodd" d="M12.2828 25.9328L12.2901 25.8984L13.9505 18.0869H6.65051L4.2999 29.1455C1.69765 30.6888 0.36084 32.1813 0.511469 33.5645C1.26948 40.5256 39.4146 42.082 85.7109 37.0408C94.4828 36.0856 102.918 34.9621 110.824 33.721C106.634 34.0959 102.17 34.4751 97.5945 34.8638L97.5891 34.8642L97.5806 34.865L97.5749 34.8654L97.569 34.8659L97.5567 34.867C93.5374 35.2084 89.4321 35.5571 85.3498 35.9167C41.0351 39.8204 4.65823 37.8451 4.09966 31.5048C3.95233 29.832 6.3128 28.0226 10.6819 26.1933C7.56872 27.5631 6.24017 29.355 5.86723 30.9913H18.103L19.1782 25.9328H12.2828ZM10.464 26.2607C10.3934 26.2887 10.3232 26.3166 10.2535 26.3446C10.5086 26.2445 10.7684 26.1442 11.0325 26.044C11.0739 26.0269 11.1156 26.0099 11.1575 25.993C11.0386 26.0378 10.9209 26.0827 10.8044 26.1277C10.7432 26.1513 10.6823 26.1749 10.6217 26.1986C10.5689 26.2193 10.5163 26.24 10.464 26.2607Z" fill="#CBCBCB"/>
<path d="M32.2554 17.6053C31.8641 17.5822 31.4564 17.5707 31.0321 17.5707C29.9532 17.5707 28.9452 17.651 28.0081 17.8116C27.0852 17.9607 26.2344 18.1844 25.4556 18.4826C24.6793 18.7694 23.9776 19.1192 23.3504 19.5322C22.7373 19.9337 22.1942 20.3925 21.7209 20.9087C21.2594 21.4248 20.8702 21.9869 20.5533 22.5948C20.2482 23.2028 20.0237 23.8451 19.8799 24.5219C19.8729 24.5547 19.8662 24.5874 19.8596 24.6201C19.8535 24.6509 19.8475 24.6817 19.8418 24.7124C28.1908 24.5412 30.195 22.5074 32.2554 17.6053Z" fill="#CBCBCB"/>
<path d="M19.842 24.7124C19.7575 25.1636 19.7144 25.6108 19.7129 26.0532C19.7229 26.558 19.7964 27.0397 19.9334 27.4985C20.0821 27.9574 20.2944 28.3932 20.5701 28.8062C20.8601 29.2077 21.2218 29.5747 21.6553 29.9074C22.1006 30.24 22.6319 30.5268 23.2491 30.7677C23.8688 30.9971 24.5757 31.1749 25.3697 31.301C25.8569 31.3845 26.3797 31.4427 26.938 31.4755C28.6357 26.5769 28.1763 24.5855 19.842 24.7124Z" fill="#CBCBCB"/>
<path d="M26.999 31.479C27.3427 31.498 27.6997 31.5075 28.07 31.5075C29.4655 31.5075 30.7178 31.3813 31.8269 31.129C32.9452 30.8881 33.9318 30.5497 34.7868 30.1138C35.6441 29.6665 36.3753 29.1503 36.9805 28.5653C37.588 27.9688 38.0752 27.3322 38.4418 26.6555C38.8109 25.9672 39.0735 25.256 39.2295 24.5219C39.2407 24.4696 39.2512 24.4176 39.2611 24.3658C31.0468 24.5352 29.0494 26.5973 26.999 31.479Z" fill="#CBCBCB"/>
<path d="M39.2609 24.3658C31.0719 24.4895 30.6322 22.4744 32.3171 17.609C33.8881 17.7069 35.1906 17.9924 36.2247 18.4654C37.5286 19.0619 38.4272 19.882 38.9207 20.9259C39.3951 21.9293 39.5084 23.0762 39.2609 24.3658Z" fill="#CBCBCB"/>
<path d="M165.128 30.9913C165.779 30.9913 166.307 30.4634 166.307 29.8121C166.307 29.1609 165.779 28.6329 165.128 28.6329C164.476 28.6329 163.949 29.1609 163.949 29.8121C163.949 30.4634 164.476 30.9913 165.128 30.9913Z" fill="#CBCBCB"/>
</g>
<defs>
<clipPath id="clip0_4413_952">
<rect width="168" height="40" fill="white" transform="translate(0.5)"/>
</clipPath>
</defs>
</svg>
